<svg width="32" height="32" viewBox="0 0 32 32" fill="none" xmlns="http://www.w3.org/2000/svg">
<path opacity="0.5" d="M16 20C18.2091 20 20 18.2091 20 16C20 13.7909 18.2091 12 16 12C13.7909 12 12 13.7909 12 16C12 18.2091 13.7909 20 16 20Z" fill="#2D9CDB"/>
<path d="M16 20C18.2091 20 20 18.2091 20 16C20 13.7909 18.2091 12 16 12C13.7909 12 12 13.7909 12 16C12 18.2091 13.7909 20 16 20Z" stroke="black" stroke-width="2" stroke-linecap="round" stroke-linejoin="round"/>
<path d="M9.63629 22.3642C8.79965 21.5289 8.13591 20.537 7.68304 19.445C7.23017 18.353 6.99707 17.1824 6.99707 16.0002C6.99707 14.818 7.23017 13.6474 7.68304 12.5554C8.13591 11.4634 8.79965 10.4714 9.63629 9.63623" stroke="black" stroke-width="2" stroke-linecap="round" stroke-linejoin="round"/>
<path d="M22.3643 9.63623C23.2009 10.4714 23.8646 11.4634 24.3175 12.5554C24.7704 13.6474 25.0035 14.818 25.0035 16.0002C25.0035 17.1824 24.7704 18.353 24.3175 19.445C23.8646 20.537 23.2009 21.5289 22.3643 22.3642" stroke="black" stroke-width="2" stroke-linecap="round" stroke-linejoin="round"/>
<path d="M6.10058 25.8996C4.79913 24.6004 3.76664 23.0573 3.06218 21.3586C2.35772 19.6599 1.99512 17.839 1.99512 16.0001C1.99512 14.1611 2.35772 12.3402 3.06218 10.6416C3.76664 8.9429 4.79913 7.39981 6.10058 6.10059" stroke="black" stroke-width="2" stroke-linecap="round" stroke-linejoin="round"/>
<path d="M25.8994 6.10059C27.2009 7.39981 28.2333 8.9429 28.9378 10.6416C29.6423 12.3402 30.0049 14.1611 30.0049 16.0001C30.0049 17.839 29.6423 19.6599 28.9378 21.3586C28.2333 23.0573 27.2009 24.6004 25.8994 25.8996" stroke="black" stroke-width="2" stroke-linecap="round" stroke-linejoin="round"/>
</svg>
